<svg xmlns="http://www.w3.org/2000/svg" viewBox="0 0 107.8 114.89"><defs><style>.cls-1{fill:#fff;stroke:#000;stroke-miterlimit:10;stroke-width:3px;}</style></defs><title>claps</title><g id="Layer_2" data-name="Layer 2"><g id="Clapping_hands" data-name="Clapping hands"><path class="cls-1" d="M80.73,57,43.85,19.37a6.39,6.39,0,0,0-9,9L56.07,49.67l-1.28,1.6-28.23-29a6.39,6.39,0,0,0-9,9L44.29,57.77l-1.41,1L20.79,36.66a6.39,6.39,0,0,0-9,9L32.16,66.11l-1.69,1.16L19.35,55.4a6.39,6.39,0,0,0-9,9L34.42,88.54c17.49,17.49,41.64,27,57.84,14.61,16-12.23,18.85-36,5.76-51.88L83.61,31.1s-5.76-5.76-11.53,0S80.73,57,80.73,57"/><path class="cls-1" d="M73.79,61.66,36.91,24a6.39,6.39,0,0,0-9,9L49.13,54.3l-1.28,1.6-28.23-29a6.39,6.39,0,0,0-9,9L37.34,62.4l-1.41,1L13.85,41.29a6.39,6.39,0,0,0-9,9L25.22,70.74,23.53,71.9,12.41,60a6.39,6.39,0,1,0-9,9L27.48,93.17c17.49,17.49,41.64,27,57.84,14.61,16-12.23,18.85-36,5.76-51.88L76.67,35.72s-5.76-5.76-11.53,0,8.65,25.94,8.65,25.94"/><path d="M63.23,18,59.94.77A.64.64,0,0,1,60.57,0H68a.64.64,0,0,1,.63.79L64.49,18.07A.64.64,0,0,1,63.23,18Z"/><path d="M73.29,20.77,84.92,7.58a.64.64,0,0,0-.16-1L78.39,2.83a.64.64,0,0,0-.94.36l-5.26,17A.64.64,0,0,0,73.29,20.77Z"/><path d="M54.38,20,43.84,5.94a.64.64,0,0,1,.23-1l6.65-3.25a.64.64,0,0,1,.91.44l3.89,17.33A.64.64,0,0,1,54.38,20Z"/></g></g></svg>