<svg xmlns="http://www.w3.org/2000/svg" viewBox="0 0 1518 414.04"><defs><style>.cls-1{fill:none;stroke:#000;stroke-miterlimit:10;stroke-width:2px;}.cls-2{font-size:354.49px;font-family:ReklameScript-Regular, Reklame Script;}.cls-3{font-size:113.09px;}</style></defs><title>Asset 1</title><g id="Layer_2" data-name="Layer 2"><g id="Layer_1-2" data-name="Layer 1"><path d="M154.84,162.59A53.37,53.37,0,0,1,208,215.75v83.69a53.37,53.37,0,0,1-53.16,53.16H71.16A53.37,53.37,0,0,1,18,299.43V215.75a53.37,53.37,0,0,1,53.16-53.16h83.69m0-18H71.16A71.37,71.37,0,0,0,0,215.75v83.69a71.37,71.37,0,0,0,71.16,71.16h83.69A71.37,71.37,0,0,0,226,299.43V215.75a71.37,71.37,0,0,0-71.16-71.16Z"/><path d="M58.5,76.59A21.5,21.5,0,1,1,37,98.09a21.52,21.52,0,0,1,21.5-21.5m0-18A39.5,39.5,0,1,0,98,98.09a39.5,39.5,0,0,0-39.5-39.5Z"/><path d="M161,45.59a37,37,0,1,1-37,37,37,37,0,0,1,37-37m0-18a55,55,0,1,0,55,55,55,55,0,0,0-55-55Z"/><path d="M275,212.1v99l-19-13.92V226l19-13.92m7.18-25a10.63,10.63,0,0,0-6.33,2.1l-33.45,24.51a10.77,10.77,0,0,0-4.41,8.69v78.47a10.77,10.77,0,0,0,4.41,8.69L275.86,334a10.63,10.63,0,0,0,6.33,2.1A10.78,10.78,0,0,0,293,325.34V197.84a10.78,10.78,0,0,0-10.82-10.79Z"/><line class="cls-1" x1="400" y1="27.59" x2="400" y2="370.59"/><text class="cls-2" transform="translate(503.54 301.31)">F<tspan class="cls-3" x="143.57" y="0"> </tspan><tspan x="166.18" y="0">ilmgram</tspan></text></g></g></svg>