<svg id="Film" xmlns="http://www.w3.org/2000/svg" viewBox="0 0 120 120"><defs><style>.cls-1{fill:none;}.cls-1,.cls-2{stroke:#000;stroke-miterlimit:10;stroke-width:2.5px;}.cls-2{fill:#fff;}</style></defs><title>Film</title><path class="cls-1" d="M57.63,7H48.84a6.66,6.66,0,0,0-6.1-4H23.41a6.66,6.66,0,0,0-6.1,4H7.88A6.2,6.2,0,0,0,1.5,13H64A6.2,6.2,0,0,0,57.63,7Z"/><path class="cls-1" d="M1.5,108a6.2,6.2,0,0,0,6.38,6h8.79a6.66,6.66,0,0,0,6.1,4H42.1a6.66,6.66,0,0,0,6.1-4h9.42A6.2,6.2,0,0,0,64,108Z"/><path d="M48.5,18.5v82H4.5v-82h44M51,16H2v87H51V16Z"/><polygon class="cls-1" points="81 62.72 103 44.81 103 18 55 18 55 102 81 102 81 62.72"/><rect class="cls-2" x="60" y="22" width="6" height="6"/><rect class="cls-2" x="71" y="22" width="6" height="6"/><rect class="cls-2" x="60" y="92" width="6" height="6"/><rect class="cls-2" x="71" y="92" width="6" height="6"/><rect class="cls-2" x="82" y="22" width="6" height="6"/><rect class="cls-2" x="93" y="22" width="6" height="6"/><circle class="cls-1" cx="101.5" cy="101.5" r="16.5"/><line class="cls-1" x1="101" y1="89.5" x2="101" y2="113.5"/><line class="cls-1" x1="113.5" y1="102" x2="89.5" y2="102"/></svg>