<svg xmlns="http://www.w3.org/2000/svg" viewBox="0 0 107 83"><defs><style>.cls-1{fill:#fff;}</style></defs><title>film2</title><g id="Layer_2" data-name="Layer 2"><g id="Film"><rect class="cls-1" x="1.5" y="1.5" width="104" height="80"/><path d="M104,3V80H3V3H104m3-3H0V83H107V0Z"/><rect class="cls-1" x="8.5" y="7.5" width="11" height="11"/><path d="M18,9v8H10V9h8m3-3H7V20H21V6Z"/><rect class="cls-1" x="8.5" y="26.5" width="11" height="11"/><path d="M18,28v8H10V28h8m3-3H7V39H21V25Z"/><rect class="cls-1" x="8.5" y="45.5" width="11" height="11"/><path d="M18,47v8H10V47h8m3-3H7V58H21V44Z"/><rect class="cls-1" x="8.5" y="64.5" width="11" height="11"/><path d="M18,66v8H10V66h8m3-3H7V77H21V63Z"/><rect class="cls-1" x="87.5" y="7.5" width="11" height="11"/><path d="M97,9v8H89V9h8m3-3H86V20h14V6Z"/><rect class="cls-1" x="87.5" y="26.5" width="11" height="11"/><path d="M97,28v8H89V28h8m3-3H86V39h14V25Z"/><rect class="cls-1" x="87.5" y="45.5" width="11" height="11"/><path d="M97,47v8H89V47h8m3-3H86V58h14V44Z"/><rect class="cls-1" x="87.5" y="64.5" width="11" height="11"/><path d="M97,66v8H89V66h8m3-3H86V77h14V63Z"/></g></g></svg>