<svg xmlns="http://www.w3.org/2000/svg" viewBox="0 0 46.83 54.82"><title>logo-only</title><g id="Layer_2" data-name="Layer 2"><g id="Layer_1-2" data-name="Layer 1"><path d="M23.71,21.7a9.41,9.41,0,0,1,9.4,9.4V42.41a9.41,9.41,0,0,1-9.4,9.4H12.4A9.41,9.41,0,0,1,3,42.41V31.1a9.41,9.41,0,0,1,9.4-9.4H23.71m0-3H12.4A12.44,12.44,0,0,0,0,31.1V42.41a12.44,12.44,0,0,0,12.4,12.4H23.71a12.44,12.44,0,0,0,12.4-12.4V31.1a12.44,12.44,0,0,0-12.4-12.4Z"/><path d="M9.35,8A3.31,3.31,0,1,1,6,11.27,3.32,3.32,0,0,1,9.35,8m0-3a6.31,6.31,0,1,0,6.31,6.31A6.31,6.31,0,0,0,9.35,5Z"/><path d="M25.73,3a5.79,5.79,0,1,1-5.79,5.79A5.8,5.8,0,0,1,25.73,3m0-3a8.79,8.79,0,1,0,8.79,8.79A8.79,8.79,0,0,0,25.73,0Z"/><path d="M43.83,29.73V45.06L41,43V31.77l2.79-2m1.27-4.25a1.7,1.7,0,0,0-1,.34l-5.35,3.92a1.72,1.72,0,0,0-.7,1.39V43.67a1.72,1.72,0,0,0,.7,1.39L44.09,49a1.7,1.7,0,0,0,1,.34,1.72,1.72,0,0,0,1.73-1.73V27.21a1.72,1.72,0,0,0-1.73-1.73Z"/></g></g></svg>