<?xml version="1.0" encoding="utf-8"?>
<!-- Generator: Adobe Illustrator 21.1.0, SVG Export Plug-In . SVG Version: 6.00 Build 0)  -->
<svg version="1.1" id="Layer_1" xmlns="http://www.w3.org/2000/svg" xmlns:xlink="http://www.w3.org/1999/xlink" x="0px" y="0px"
	 viewBox="0 0 179.2 66.2" style="enable-background:new 0 0 179.2 66.2;" xml:space="preserve">
<style type="text/css">
	.st0{fill:none;stroke:#000000;stroke-miterlimit:10;}
	.st1{enable-background:new    ;}
</style>
<title>logo-type</title>
<g id="Layer_2">
	<g id="Layer_1-2">
		<line class="st0" x1="0.5" y1="4.4" x2="0.5" y2="59.2"/>
		<g class="st1">
			<path d="M17.4,13.3c2.2-0.9,5.6-1.7,9.1-2.3c0.4-1.3,0.8-2.5,1.2-3.5c1.5,0.2,2.6,0.7,3.4,1.6c-0.1,0.5-0.2,0.8-0.3,1.2
				c4.8-0.7,9.2-1.1,10.8-1.2c2.1-0.2,3.9,0,4.3,0.6c0.2,0.3,2,2.4,2,2.8c0,0.4-0.5,0.9-1.2,0.9c-3.3,0.1-10.1,0.6-16.9,1.6
				c-0.8,4.1-1.6,8.2-2.3,12.5c2.8-0.6,5.5-1.1,6.9-1.2c1.2-0.1,2.9-0.3,3.2,0.4c0.3,0.8,0.9,0.1,1.5,0.8c0.2,0.3,1.2,1.4,1.2,1.9
				c0,0.4-0.1,1.2-0.9,1.2c-3.2,0.1-8.7,1.1-12.7,1.9c-0.9,6.2-1.6,12.7-2.3,19.5c-0.2,1.6-4.1-0.6-4.5-1.1
				c0.5-4.7,1.3-10.9,2.2-17.3c-0.1,0-0.2,0.1-0.3,0.1c-1.5,0.3-3.2-2.9-2.4-3.6c0.4-0.3,1.8-0.8,3.5-1.4c0.7-4.6,1.5-9.1,2.4-12.9
				c-1.9,0.3-3.7,0.7-5.4,1.1C18.4,17.3,16.5,13.7,17.4,13.3z"/>
		</g>
		<g class="st1">
			<path d="M48.5,21c0.2-0.6,0.6-0.7,1-0.7c-0.1,0,4.6,0.2,4.1,2.1C52,28.6,49.4,39.6,49.4,44c0,2.1,0.8,3.1,1.7,3.1
				c3.5,0,4.5-6.2,4.7-8.4c0,0,2.1-0.6,2.1,1.7c0,3.6-2,10.1-8.3,10.1c-3.2,0-4.9-2.3-4.9-6.8C44.7,37.7,47.4,25,48.5,21z
				 M49.5,12.4c0-1.6,0.7-6.3,3.6-6.3c1.4,0,2.3,0.3,1.9,2.2c0.9,0.5,1.7,1.1,1.7,2.6c0,1.8-1.2,5.2-4.8,5.2
				C51,16,49.5,14.9,49.5,12.4z"/>
			<path d="M56.2,43.1c0.5-8.8,3.1-27.1,5.1-36.8c0.1-0.5,0.6-0.5,0.8-0.5c1.4,0,3.8,1.5,3.6,2.5c-2,12-4.1,24.9-4.8,37.2
				c-0.1,1.5-0.2,3.1-0.3,4.6c-0.6,1-4.2-1-4.5-2C55.8,47.4,56.1,44.9,56.2,43.1z"/>
			<path d="M74.3,30.4c-1.8,5-4.5,13.4-4.4,18.8c0,0-0.7,0.8-1.9,0.8c-2.5,0-3.8-2.7-3.8-7.4c0-9.8,2.7-23.5,4-23.5
				c1.8,0,3.6,1.1,3.4,2c-1.1,5.6-2.9,12.9-2.9,16.5h0.2c2.2-6.3,4.1-12.1,5.9-16.3c0.2-0.5,0.7-0.5,1.2-0.5c1.5,0,3.8,0.7,3.6,2.5
				c-0.3,4-1.2,10.3-1.4,14.8h0.2c2.2-6.3,4-13.5,7.2-19.7c0.2-0.5,0.7-0.5,1.2-0.5c1.5,0,4.1,1,4,2.8c-0.5,5.8-3.5,14.3-3.5,20.7
				c0,2.9,0.7,4.3,2.3,4.3c1.9,0,3-3,3.5-4.5c0,0,1.2,0.1,1.2,1.5c0,2.4-2.4,6.8-6.4,6.8c-3.9,0-4.9-4.1-4.9-8.7
				c0-2.4,1.1-8.3,1.7-11.2h-0.7c-2.3,5-5,15.6-4.9,21c0,0-0.7,0.8-1.9,0.8c-2.5,0-3-2.4-3.1-6.7c-0.1-4.7,0.2-10,0.6-14.5H74.3z"/>
			<path d="M98.3,57.8c2.5-1.1,5.5-7.1,6.6-13.6c-1,1.4-2.8,4.4-5,4.4c-4.5,0-7.5-4.3-7.5-11.2c0-10.3,4.7-19,11.8-19
				c2.3,0,4.9,0.7,4.9,4.4c0,0.3-0.1,0.8-0.1,0.8c0.3,0,2.5,0.2,2.4,1.5c-0.7,4.5-1.4,13.1-3.2,21.8c-2.1,9.7-5.6,14.3-8.7,14.3
				c-4.3,0-8-2.3-8.7-4c-0.7-1.8,0.6-4,3.3-3.6C94.8,55.2,97.4,57.3,98.3,57.8z M99.6,45c3,0,6.2-8.6,6.6-14.3c0,0-0.7,0.1-1.5-0.8
				c0.6-1.4,0.9-4.4,0.9-5.8c0-1.2-0.6-2.3-1.7-2.3c-4.1,0-7,12.1-7,18.1C96.8,43.4,98.1,45,99.6,45z"/>
			<path d="M118.2,31.5c1.5-3.6,2.6-8.7,3.4-11.6c0.4-1.4,1.9-1.8,3.5-1.4c1.2,0.3,1.8,0.8,1.8,2c0,2.1-2.4,5.4-2.4,9.6
				c0,0.8,0.8,1.7,1.7,1.7c2.3,0,2.9-3.3,3.3-3.3c0.4,0,0.9,0.3,0.9,0.7c-0.1,2-1.9,5.2-4.8,5.2c-3.3,0-4.2-2.2-4.4-4.7
				c-1,3.1-3.7,9.6-3.9,18.9c-1.3,0.8-5-0.8-5-2c0-1.6,0.6-3.7,1.1-16c0.2-5.6,0.3-11,2.3-11c1.5,0,3.2,1.3,3.2,1.3
				c-0.2,3.1-0.9,7.3-1.1,10.6L118.2,31.5z"/>
			<path d="M140.7,45.5c-0.9,2-3.2,4.1-6,4.1c-4.2,0-7.4-4.3-7.4-11.2c0-10.3,4.7-20.5,11.5-20.5c3.9,0,5.6,2.5,5.6,4.2
				c0,0.3-0.1,0.6-0.1,0.6c0.5,0.2,2.7,0.2,2.4,1.5c-1.8,6.3-3.2,12.2-3.2,16.7c0,2.6,0.5,4.4,2.4,4.4c2.9,0,3.7-3.7,4.1-7.1
				c0,0,1.6-0.2,1.6,1.5c0,3-2.3,9.4-6.6,9.4c-2.6,0-4-2.4-4.1-3.7H140.7z M134.1,45.8c3.3,0,6.4-13.5,6.4-15.6c0,0-1.8-0.3-2.6-1.2
				c1.2-1.6,1.9-3.6,1.9-5.7c0-0.5,0-1.9-1.1-1.9c-4.1,0-6.7,13.5-6.7,19.5C132.1,44.5,132.7,45.8,134.1,45.8z"/>
			<path d="M159,30.4c-1.8,5-4.5,13.4-4.4,18.8c0,0-0.7,0.8-1.9,0.8c-2.5,0-3.8-2.7-3.8-7.4c0-9.8,2.7-23.5,4-23.5
				c1.8,0,3.6,1.1,3.4,2c-1.1,5.6-2.9,12.9-2.9,16.5h0.2c2.2-6.3,4.1-12.1,5.9-16.3c0.2-0.5,0.7-0.5,1.2-0.5c1.5,0,3.8,0.7,3.6,2.5
				c-0.3,4-1.2,10.3-1.4,14.8h0.2c2.2-6.3,4-13.5,7.2-19.7c0.2-0.5,0.7-0.5,1.2-0.5c1.5,0,4.1,1,4,2.8c-0.5,5.8-3.5,14.3-3.5,20.7
				c0,2.9,0.7,4.3,2.3,4.3c1.9,0,3-3,3.5-4.5c0,0,1.2,0.1,1.2,1.5c0,2.4-2.4,6.8-6.4,6.8c-3.9,0-4.9-4.1-4.9-8.7
				c0-2.4,1.1-8.3,1.7-11.2h-0.7c-2.3,5-5,15.6-4.9,21c0,0-0.7,0.8-1.9,0.8c-2.5,0-3-2.4-3.1-6.7c-0.1-4.7,0.2-10,0.6-14.5H159z"/>
		</g>
	</g>
</g>
</svg>
