<svg xmlns="http://www.w3.org/2000/svg" viewBox="0 0 117.21 111.9"><defs><style>.cls-1,.cls-2{fill:#fff;stroke:#000;stroke-miterlimit:10;stroke-width:3px;}.cls-2{stroke-linecap:square;}</style></defs><title>photo</title><g id="Layer_2" data-name="Layer 2"><g id="Film"><rect class="cls-1" x="39.29" y="9.81" width="73.5" height="73.5" transform="translate(3.95 -5.9) rotate(4.56)"/><circle class="cls-1" cx="80.82" cy="34.4" r="16.37" transform="translate(39.48 111.9) rotate(-84.98)"/><path class="cls-1" d="M93.77,53.63a25.92,25.92,0,0,1-29-2.55A23.48,23.48,0,0,0,46,72l-.81,9.23,62.52,5.49.81-9.23A23.48,23.48,0,0,0,93.77,53.63Z"/><rect class="cls-1" x="35.61" y="83.16" width="73.5" height="18.85" transform="translate(7.6 -5.46) rotate(4.56)"/><rect class="cls-1" x="10.1" y="10.1" width="73.5" height="73.5" transform="translate(-10.53 13.73) rotate(-15)"/><rect class="cls-1" x="22.05" y="82.02" width="73.5" height="18.85" transform="translate(-21.67 18.34) rotate(-15)"/><polyline class="cls-2" points="44.6 62.6 62.3 31.93 83.1 43.94"/><polyline class="cls-2" points="12.44 54.62 25.2 32.56 52.11 48.13"/><circle class="cls-2" cx="51.79" cy="21.81" r="7.5" transform="translate(-3.88 14.15) rotate(-15)"/></g></g></svg>